<svg fill="#1A1A1A" xmlns="http://www.w3.org/2000/svg"  viewBox="0 0 48 48" width="50px" height="50px"><path d="M 13.5 8 C 7.701 8 3 12.701 3 18.5 L 3 36.955078 C 3 38.612078 4.343 39.955078 6 39.955078 L 24 39.955078 L 24 18.5 C 24 12.701 19.299 8 13.5 8 z M 21.970703 8 C 25.040703 10.48 27 14.26 27 18.5 L 27 39.960938 L 42 39.960938 C 43.66 39.960938 45 38.610937 45 36.960938 L 45 18.5 C 45 12.7 40.3 8 34.5 8 L 21.970703 8 z M 13.5 18 C 14.881 18 16 19.119 16 20.5 C 16 21.881 14.881 23 13.5 23 C 12.119 23 11 21.881 11 20.5 C 11 19.119 12.119 18 13.5 18 z M 31.5 19 L 40.5 19 C 41.329 19 42 19.672 42 20.5 L 42 24.5 C 42 25.328 41.329 26 40.5 26 C 39.671 26 39 25.328 39 24.5 L 39 22 L 31.5 22 C 30.671 22 30 21.328 30 20.5 C 30 19.672 30.671 19 31.5 19 z"/></svg>